<?xml version="1.0" encoding="UTF-8" standalone="no"?>
<!-- Created with Inkscape (http://www.inkscape.org/) -->
<svg viewBox="0 0 128 128" xmlns="http://www.w3.org/2000/svg" xmlns:xlink="http://www.w3.org/1999/xlink">
  <defs>
    <linearGradient id="linearGradient3319">
      <stop offset="0" />
      <stop offset="1" stop-opacity="0" />
    </linearGradient>
    <linearGradient id="linearGradient3260">
      <stop offset="0" stop-color="#fff" />
      <stop offset="1" stop-color="#fff" stop-opacity="0" />
    </linearGradient>
    <linearGradient id="linearGradient3259">
      <stop offset="0" stop-color="#fff" stop-opacity=".55036" />
      <stop offset="1" stop-opacity="0" />
    </linearGradient>
    <linearGradient id="linearGradient3273">
      <stop offset="0" stop-color="#fff" stop-opacity=".55036" />
      <stop offset="1" stop-color="#fff" stop-opacity="0" />
    </linearGradient>
    <linearGradient id="linearGradient3251">
      <stop offset="0" />
      <stop offset="1" stop-color="#131313" stop-opacity="0" />
    </linearGradient>
    <linearGradient id="linearGradient3207">
      <stop offset="0" stop-color="#fff" />
      <stop offset="1" stop-color="#252525" stop-opacity="0" />
    </linearGradient>
    <linearGradient id="linearGradient2630">
      <stop offset="0" />
      <stop offset=".79708803" stop-color="#535353" stop-opacity=".021661" />
      <stop offset=".8900001" stop-color="#d7d7d7" stop-opacity=".733333" />
      <stop offset=".93590701" stop-color="#f8f6f8" />
      <stop offset=".95950168" stop-color="#b8b8b8" stop-opacity=".642599" />
      <stop offset="1" stop-color="#4c4c4c" stop-opacity="0" />
    </linearGradient>
    <linearGradient id="linearGradient2473">
      <stop offset="0" stop-opacity="0" />
      <stop offset=".78571427" stop-opacity="0" />
      <stop offset="1" />
    </linearGradient>
    <linearGradient id="linearGradient2455">
      <stop offset="0" />
      <stop offset=".79708803" stop-color="#202020" />
      <stop offset=".85546148" stop-color="#e7e7e7" />
      <stop offset=".93506157" stop-color="#f8f6f8" />
      <stop offset=".96003789" stop-color="#c0c0c0" />
      <stop offset="1" stop-color="#393939" />
    </linearGradient>
    <linearGradient id="linearGradient2334">
      <stop offset="0" stop-color="#323232" />
      <stop offset=".07692308" stop-color="#dfe1e1" />
      <stop offset=".5" stop-color="#e2dcdc" />
      <stop offset=".78201604" stop-color="#fff" />
      <stop offset=".9005897" stop-color="#dfd9df" />
      <stop offset="1" stop-color="#3a3a3a" />
    </linearGradient>
    <radialGradient id="radialGradient3154" cx="81.562538" cy="151.97745" fx="73.268311"
      gradientTransform="matrix(1 0 0 .133333 0 131.7138)" gradientUnits="userSpaceOnUse" r="80.225449"
      xlink:href="#linearGradient3319" />
    <radialGradient id="radialGradient4467" cx="83.065674" cy="81.761391"
      gradientTransform="matrix(1.145989 .00007182 -.0000718 1.145706 -12.93017 -8.588644)"
      gradientUnits="userSpaceOnUse" r="60.137135" xlink:href="#linearGradient2455" />
    <linearGradient id="linearGradient4469" gradientUnits="userSpaceOnUse" x1="70.014503" x2="70.714478"
      xlink:href="#linearGradient3319" y1="234.0043" y2="81.013222" />
    <radialGradient id="radialGradient4471" cx="83.065674" cy="81.761391"
      gradientTransform="matrix(1.145989 .00007182 -.0000718 1.145706 -12.93017 -8.588644)"
      gradientUnits="userSpaceOnUse" r="60.137135" xlink:href="#linearGradient2630" />
    <linearGradient id="linearGradient4473"
      gradientTransform="matrix(3.324551 -3.768017 3.412219 3.760659 -394.5377 140.5301)" gradientUnits="userSpaceOnUse"
      x1="96.500999" x2="86.659409" xlink:href="#linearGradient3319" y1="108.17699" y2="46.901562" />
    <linearGradient id="linearGradient4475" gradientUnits="userSpaceOnUse" x1="15.926414" x2="60.493149"
      xlink:href="#linearGradient3260" y1="35.015072" y2="89.003677" />
    <linearGradient id="linearGradient4477" gradientTransform="matrix(.438478 0 0 .441381 73.98556 -126.2765)"
      gradientUnits="userSpaceOnUse" x1="-12.06945" x2="-25.188473" xlink:href="#linearGradient2334" y1="25.74098"
      y2="25.657583" />
    <linearGradient id="linearGradient4479" gradientTransform="matrix(.609627 0 0 .715052 29.30307 10.26489)"
      gradientUnits="userSpaceOnUse" x1="147.29317" x2="143.51395" xlink:href="#linearGradient3319" y1="91.801956"
      y2="79.985901" />
    <radialGradient id="radialGradient4481" cx="-22.273863" cy="25.119381" fx="-22.740553" fy="25.096069"
      gradientTransform="matrix(1 0 0 19.25308 0 -458.5062)" gradientUnits="userSpaceOnUse" r="1.06066"
      xlink:href="#linearGradient3260" />
    <linearGradient id="linearGradient4483"
      gradientTransform="matrix(3.448624 .00449815 .02868487 2.135546 -187.1513 6.397941)"
      gradientUnits="userSpaceOnUse" x1="48.498562" x2="48.732723" xlink:href="#linearGradient3260" y1=".811505"
      y2="2.365727" />
    <linearGradient id="linearGradient4485" gradientTransform="matrix(3.429646 0 0 2.135734 -186.3433 6.642557)"
      gradientUnits="userSpaceOnUse" x1="46.051746" x2="46.051746" xlink:href="#linearGradient3251" y1="3.099999"
      y2="2.395859" />
    <radialGradient id="radialGradient4487" cx="49.011971" cy="2.674308"
      gradientTransform="matrix(2.28699 0 0 .25983 -140.1983 11.60303)" gradientUnits="userSpaceOnUse" r="1.724619"
      xlink:href="#linearGradient3273" />
    <linearGradient id="linearGradient4489" gradientTransform="matrix(3.402862 0 0 2.135734 -148.6237 6.642557)"
      gradientUnits="userSpaceOnUse" x1="46.051746" x2="46.051746" xlink:href="#linearGradient3251" y1="3.099999"
      y2="2.395859" />
    <radialGradient id="radialGradient4491" cx="49.011971" cy="2.674308"
      gradientTransform="matrix(2.269129 0 0 .25983 -102.8394 11.60303)" gradientUnits="userSpaceOnUse" r="1.724619"
      xlink:href="#linearGradient3259" />
    <radialGradient id="radialGradient4493" cx="49.011971" cy="2.674308"
      gradientTransform="matrix(7.916514 0 0 .25993 -406.4715 11.59422)" gradientUnits="userSpaceOnUse" r="1.724619"
      xlink:href="#linearGradient3207" />
    <radialGradient id="radialGradient4495" cx="-24.921875" cy="15.046875" fx="-26.866419" fy="14.944194"
      gradientTransform="matrix(1 0 0 1.335606 -1.988117 -4.751606)" gradientUnits="userSpaceOnUse" r="4.421875"
      xlink:href="#linearGradient3260" />
    <linearGradient id="linearGradient4497" gradientUnits="userSpaceOnUse" x1="-27.24758" x2="-10.121838"
      xlink:href="#linearGradient2334" y1="21.989172" y2="21.94939" />
    <linearGradient id="linearGradient4501"
      gradientTransform="matrix(.685587 .657569 -.661924 .681076 64.96793 -27.5529)" gradientUnits="userSpaceOnUse"
      x1="53.468643" x2="74.656281" xlink:href="#linearGradient2334" y1="4.911948" y2="4.911948" />
    <linearGradient id="linearGradient4503"
      gradientTransform="matrix(1.758006 1.772105 -1.047738 1.057575 24.61835 -74.00799)" gradientUnits="userSpaceOnUse"
      x1="48.498562" x2="48.732723" xlink:href="#linearGradient3260" y1=".811505" y2="2.365727" />
    <radialGradient id="radialGradient4505" cx="49.011971" cy="2.674308"
      gradientTransform="matrix(1.655369 0 0 .181112 -.548537 -66.14434)" gradientUnits="userSpaceOnUse" r="1.724619"
      xlink:href="#linearGradient3273" />
    <radialGradient id="radialGradient4507" cx="49.011971" cy="2.674308"
      gradientTransform="matrix(1.642439 0 0 .181112 -175.3662 -66.14434)" gradientUnits="userSpaceOnUse" r="1.724619"
      xlink:href="#linearGradient3259" />
    <radialGradient id="radialGradient4509" cx="49.011971" cy="2.674308"
      gradientTransform="matrix(5.730159 0 0 .181165 -191.9445 -66.10245)" gradientUnits="userSpaceOnUse" r="1.724619"
      xlink:href="#linearGradient3207" />
    <linearGradient id="linearGradient4511"
      gradientTransform="matrix(1.759603 1.77054 1.078826 -1.026268 14.20292 -63.80183)" gradientUnits="userSpaceOnUse"
      x1="48.498562" x2="48.732723" xlink:href="#linearGradient3260" y1=".811505" y2="2.365727" />
    <radialGradient id="radialGradient4513" cx="49.011971" cy="2.674308"
      gradientTransform="matrix(1.65538 0 0 .181149 -2.395841 58.52023)" gradientUnits="userSpaceOnUse" r="1.724619"
      xlink:href="#linearGradient3273" />
    <radialGradient id="radialGradient4515" cx="49.011971" cy="2.674308"
      gradientTransform="matrix(1.642453 0 0 .181149 -173.5212 58.52023)" gradientUnits="userSpaceOnUse" r="1.724619"
      xlink:href="#linearGradient3259" />
    <radialGradient id="radialGradient4517" cx="49.011971" cy="2.674308"
      gradientTransform="matrix(5.730124 0 0 .181245 -196.0427 58.61278)" gradientUnits="userSpaceOnUse" r="1.724619"
      xlink:href="#linearGradient3207" />
    <linearGradient id="linearGradient4521" gradientUnits="userSpaceOnUse" x1="-238.48151" x2="188.91844"
      xlink:href="#linearGradient2334" y1="-174.05746" y2="214.27696" />
    <radialGradient id="radialGradient4525" cx="83.065674" cy="81.761391"
      gradientTransform="matrix(1.145989 .00007182 -.0000718 1.145706 -12.93017 -8.588648)"
      gradientUnits="userSpaceOnUse" r="60.137135" xlink:href="#linearGradient2630" />
    <radialGradient id="radialGradient4527" cx="59.067848" cy="128.89101"
      gradientTransform="matrix(.898654 -.898654 .888573 .888573 -76.78193 40.27773)" gradientUnits="userSpaceOnUse"
      r="62.349537" xlink:href="#linearGradient2473" />
    <linearGradient id="linearGradient4529"
      gradientTransform="matrix(.831465 .03499012 -.03522186 .825995 .789955 -7.883916)" gradientUnits="userSpaceOnUse"
      x1="93.014229" x2="63.199142" xlink:href="#linearGradient3260" y1="195.93301" y2="107.47736" />
    <linearGradient id="linearGradient4531"
      gradientTransform="matrix(.831465 .03499012 -.03522186 .825995 .789955 -7.883916)" gradientUnits="userSpaceOnUse"
      x1="23.311308" x2="63.795216" xlink:href="#linearGradient3260" y1="27.910204" y2="61.082687" />
    <linearGradient id="linearGradient4533" gradientUnits="userSpaceOnUse" spreadMethod="reflect" x1="95.33295555869"
      x2="97.07244802185" y1="-61.78935829804" y2="-61.78935829804">
      <stop offset="0" />
      <stop offset=".5" stop-opacity="0" />
      <stop offset="1" stop-opacity="0" />
    </linearGradient>
    <linearGradient id="linearGradient4535" gradientUnits="userSpaceOnUse" x1="95.59744775286" x2="109.27675917238"
      y1="33.88644463376" y2="40.19997430684">
      <stop offset="0" stop-color="#090909" />
      <stop offset="1" stop-color="#090909" stop-opacity="0" />
    </linearGradient>
    <linearGradient id="linearGradient4537" gradientUnits="userSpaceOnUse" x1="111.59172001872" x2="103.59458439264"
      xlink:href="#linearGradient3260" y1="43.98809657098" y2="37.04321099085" />
    <radialGradient id="radialGradient4571" cx="83.065674" cy="81.761391"
      gradientTransform="matrix(.669697 .674548 -.678846 .665127 58.50428 -46.09723)" gradientUnits="userSpaceOnUse"
      r="60.137135" xlink:href="#linearGradient2455" />
    <linearGradient id="linearGradient4575"
      gradientTransform="matrix(.584421 .588579 -.592477 .580575 60.97237 -33.50045)" gradientUnits="userSpaceOnUse"
      x1="70.014503" x2="70.714478" xlink:href="#linearGradient3319" y1="234.0043" y2="81.013222" />
    <linearGradient id="linearGradient4577" gradientTransform="matrix(1.023675 0 0 1.029802 .582817 -3.613225)"
      gradientUnits="userSpaceOnUse" x1="65.203751" x2="56.701717" xlink:href="#linearGradient3319" y1="612.86029"
      y2="-254.52678" />
    <radialGradient id="radialGradient4579" cx="59.067848" cy="128.89101"
      gradientTransform="matrix(1.057624 .00719293 -.00715772 1.03888 -7.764231 -55.30845)"
      gradientUnits="userSpaceOnUse" r="62.349537" xlink:href="#linearGradient2473" />
    <linearGradient id="linearGradient4581" gradientUnits="userSpaceOnUse" x1="117.54236394475" x2="102.07664109775"
      xlink:href="#linearGradient3319" y1="77.57416389895" y2="82.72940245938" />
    <radialGradient id="radialGradient4583" cx="106.95535" cy="101.32612"
      gradientTransform="matrix(1 0 0 .971429 0 2.895033)" gradientUnits="userSpaceOnUse" r="7.577808"
      xlink:href="#linearGradient2334" />
    <linearGradient id="linearGradient4597" gradientUnits="userSpaceOnUse" x1="104.12464249979" x2="107.63693573642"
      xlink:href="#linearGradient3319" y1="35.11223003767" y2="22.90198741118" />
    <linearGradient id="linearGradient4599" gradientUnits="userSpaceOnUse" x1="102.22681425062" x2="106.39105451611"
      xlink:href="#linearGradient3319" y1="30.87397730131" y2="22.85063693555" />
    <linearGradient id="linearGradient2601" gradientUnits="userSpaceOnUse" x1="54.399878" x2="48.554702"
      xlink:href="#linearGradient3260" y1="1.35905" y2="38.378509" />
  </defs>
  <g>
    <path d="m161.78799 151.97745a80.225449 10.696727 0 1 1 -160.4509005 0 80.225449 10.696727 0 1 1 160.4509005 0z"
      fill="url(#radialGradient3154)" opacity=".221312" transform="matrix(.800973 0 0 .561601 -1.272228 37.16829)" />
    <g transform="matrix(1.002871 0 0 1.002871 .308513 .927684)">
      <g transform="matrix(.142013 .142291 -.128855 .125545 109.6657 -9.174773)">
        <g>
          <g>
            <path
              d="m82.253117 16.192372c-37.957156 0-68.919768 30.930705-68.919768 68.887861 0 37.957157 30.962613 68.919767 68.919768 68.919767 37.957163 0 68.919773-30.96261 68.919773-68.919767 0-37.957156-30.96261-68.887861-68.919773-68.887861zm0 14.996432c29.830703 0 53.891423 24.060738 53.891423 53.891429 0 29.830697-24.06072 53.891417-53.891423 53.891417-29.830693 0-53.89143-24.06072-53.89143-53.891417 0-29.830691 24.060739-53.891429 53.89143-53.891429z"
              fill="url(#radialGradient4467)" />
            <path
              d="m13.333349 85.080233c0 37.957157 30.962613 68.919767 68.919768 68.919767 37.957163 0 68.919773-30.96261 68.919773-68.919767 0-37.957156-137.839541-37.957156-137.839541 0zm122.811191 0c0 29.830697-24.06072 53.891417-53.891423 53.891417-29.830693 0-53.89143-24.06072-53.89143-53.891417 0-29.830691 107.782853-29.830691 107.782853 0z"
              fill="url(#linearGradient4469)" />
            <path
              d="m82.253117 16.192372c-37.957156 0-68.919768 30.930705-68.919768 68.887861 0 37.957157 30.962613 68.919767 68.919768 68.919767 37.957163 0 68.919773-30.96261 68.919773-68.919767 0-37.957156-30.96261-68.887861-68.919773-68.887861zm0 14.996432c29.830703 0 53.891423 24.060738 53.891423 53.891429 0 29.830697-24.06072 53.891417-53.891423 53.891417-29.830693 0-53.89143-24.06072-53.89143-53.891417 0-29.830691 24.060739-53.891429 53.89143-53.891429z"
              fill="url(#radialGradient4471)" />
            <path
              d="m32.919809 44.249044c-7.19123 9.15761-11.296417 20.718791-11.296429 33.303626-.000017 15.789309 6.64233 30.01589 17.411554 39.85996-6.715563-8.98785-10.587113-20.219928-10.587116-32.338642.00001-29.8307 23.963769-53.818874 53.794476-53.818893 13.983144-.000001 26.704286 5.269512 36.267886 13.959199-9.82085-13.066631-25.435163-21.480535-43.092328-21.480517-17.245882.000017-32.643381 7.965934-42.498043 20.515267zm-4.818215 83.409956c12.637184 16.06593 32.257014 26.29152 54.201 26.29152 37.957176-.00001 68.883506-30.81815 68.883506-68.775314.00002-19.40061-8.12571-36.964581-21.10279-49.502155 8.91543 11.610347 14.27835 26.264198 14.27835 41.980837 0 37.957152-30.92633 68.775302-68.883498 68.775312-18.271445 0-35.020075-7.0945-47.376568-18.7702z"
              fill="url(#linearGradient4473)" />
            <path
              d="m106.40625.9375c-3.0632.0990517-6.01559 1.2292478-8.25 3.40625-2.633411 2.5657526-3.794611 6.113268-3.53125 9.71875.220155-2.887821 1.389582-5.6321059 3.53125-7.71875 5.10722-4.976005 13.87125-4.4210106 19.5 1.21875 2.71177 2.717073 4.20819 6.1317 4.46875 9.5.2865-3.982648-1.21463-8.2395129-4.46875-11.5-3.16617-3.1723653-7.3116-4.75235216-11.25-4.625zm-8.78125 13.5c-.301157 3.171661.882093 6.595721 3.5 9.21875 4.42366 4.432314 11.23621 4.848164 15.25.9375 2.12495-2.070351 3.02302-4.921232 2.75-7.8125-.21347 2.176079-1.1194 4.223793-2.75 5.8125-4.01379 3.910664-10.82634 3.494814-15.25-.9375-2.073589-2.077647-3.251006-4.658591-3.5-7.21875z"
              fill="url(#linearGradient4475)"
              transform="matrix(3.324551 -3.768017 3.412219 3.760659 -327.8572 438.6096)" />
          </g>
        </g>
      </g>
      <g transform="matrix(1.023675 0 0 1.023675 .582817 -2.870429)">
        <rect fill="url(#linearGradient4477)" height="6.329079"
          transform="matrix(.00994511 .999951 -.999952 .0098147 0 0)" width="5.547753" x="63.259872" y="-115.09926" />
        <g transform="matrix(.752035 0 0 .752035 27.42683 15.48001)">
          <rect fill="url(#linearGradient4479)" height="4.786486"
            transform="matrix(.999695 -.02470684 -.04260364 .999092 0 0)" width="3.910747" x="115.50954"
            y="67.634216" />
          <g transform="matrix(.00579881 .583026 -.586887 .00576066 132.4148 76.30728)">
            <rect height="12.371133" width="16.588566" x="-26.710403" y="15.763824" />
            <path
              d="m-21.213203 25.119381c0 3.317745.18567 3.699316-.925702 3.699316-1.348921 0-1.195618 2.292556-1.195618-1.025189s.475176-8.684534 1.06066-8.684534c.585485 0 1.06066 2.692662 1.06066 6.010407z"
              fill="url(#radialGradient4481)" opacity=".364754"
              transform="matrix(4.166667 0 0 1.338235 73.00877 -10.52919)" />
          </g>
          <g transform="matrix(.00579881 .583026 -.586887 .00576066 132.4128 76.11627)">
            <path
              d="m-19.34375 8.96875c-7.421472.174189-11.811409 2.026669-12.46875 2.96875-.036941.057881-.054745.137323-.0625.1875-.000508.006996-.000092.024429 0 .03125v5.90625h27.59375s-.0258935-5.477208-.03125-5.875c-.0002288-.017088.0026026-.044925 0-.0625-.0189358-.089051-.0785104-.213355-.15625-.3125-.952784-1.139896-5.693726-2.8333732-13.65625-2.84375-.415011-.0005411-.821171-.0093316-1.21875 0z"
              fill-rule="evenodd" />
            <path
              d="m-20.53664 9.2059377c5.348446-.2444763 10.6382483.587152 11.0541948.7184367.4159256.1312966-6.0450428-.4957344-10.2014838-.1138677-4.124677.3789383-7.764362 2.3635033-8.218868 2.3830193-.454505.019516-3.984135-.160856-2.28769-1.028873 1.774405-.907907 5.524316-1.7687788 9.653847-1.9587153z"
              fill="url(#linearGradient4483)" fill-rule="evenodd" />
            <rect fill="url(#linearGradient4485)" height="1.036178"
              transform="matrix(.999999 .00130413 .01343145 .99991 0 0)" width="7.888392" x="-32.052456"
              y="12.227109" />
            <rect fill="url(#radialGradient4487)" height="1.612524"
              transform="matrix(.999999 .00130413 .01343145 .99991 0 0)" width="7.888392" x="-32.052456"
              y="11.650754" />
            <rect fill="url(#linearGradient4489)" height="1.036178"
              transform="matrix(-.999999 -.00130413 .01343145 .99991 0 0)" width="7.826785" x="4.463424"
              y="12.227109" />
            <rect fill="url(#radialGradient4491)" height="1.612524"
              transform="matrix(-.999999 -.00130413 .01343145 .99991 0 0)" width="7.826785" x="4.463424"
              y="11.650754" />
            <rect fill="url(#radialGradient4493)" height="1.613145"
              transform="matrix(1 .00056811 .03082075 .999525 0 0)" width="27.305944" x="-32.119999" y="11.641968" />
            <path
              d="m-31.019367 12.593464c-.194198.702526-.3125 1.479663-.3125 2.278882 0 1.184028.218846 2.280903.625 3.224375h7.5625c.406154-.943472.65625-2.040347.65625-3.224375 0-.799219-.118302-1.576356-.3125-2.278882z"
              fill="url(#radialGradient4495)" opacity=".508197" />
          </g>
        </g>
      </g>
      <g transform="matrix(.510557 .513086 -.661997 .64955 125.9717 16.65801)">
        <rect fill="url(#linearGradient4497)" height="12.371133" width="16.588566" x="-26.710403" y="15.763824" />
        <path
          d="m-21.213203 25.119381c0 3.317745.18567 3.699316-.925702 3.699316-1.348921 0-1.195618 2.292556-1.195618-1.025189s.475176-8.684534 1.06066-8.684534c.585485 0 1.06066 2.692662 1.06066 6.010407z"
          fill="url(#radialGradient4481)" opacity=".364754"
          transform="matrix(4.166667 0 0 1.338235 73.00877 -10.52919)" />
      </g>
      <path
        d="m108.65043 13.028461c-3.58929-3.3527043-6.54149-4.6478109-7.43208-4.6198175-.00714.0004156-.03525.0001372-.04211.000735-.00657.000778-.0144.0203251-.02068.0212832-.01787.0034897-.04575.0143601-.0628.0220182-.00543.0027855-.03701-.0021691-.04211.000735-.00468.0029052-.01649.0184907-.02068.0212833-.00187.0015785-.01769.0182859-.02069.0212832l-4.82407 4.7080906c-.00306.002939-.01907.019447-.02068.021284-.00526.007111.00672.032605.00074.041833-.00299.005023-.01781.015926-.02069.021283-.00794.01683-.01618.045414-.01994.063117-.1345.797135 1.18241 3.944794 4.87747 7.844644.19795.20892.4103.424686.62205.637754 4.031 4.056066 7.2761 5.668251 8.35555 5.628923.00556-.000524.03654-.000047.04212-.000734.06689-.010117.14116-.041702.18838-.066054.00367-.002073.01731-.01918.02068-.021286.00545-.005684.01637-.017175.02069-.021282.12482-.118728 4.68217-4.564448 4.80338-4.686807.00629-.006348.03355-.034572.04137-.042568.03203-.054189.05005-.148387.05909-.23118.00127-.016339.0195-.045703.01995-.063117.00005-.017948-.00069-.064657-.00148-.083664-.00299-.048838-.01616-.132566-.02438-.18788-.21514-1.312884-1.85571-4.355319-5.53425-8.063339-.21154-.213254-.41447-.438266-.62204-.637753-.12108-.11637-.22314-.217029-.34279-.328785z"
        fill="url(#linearGradient4501)" fill-rule="evenodd" />
      <path
        d="m108.26477 12.873497c2.85156 2.625552 5.13788 5.746502 5.28488 6.024086.14697.277579-2.8389-3.344531-5.15039-5.291229-2.29383-1.931826-5.13886-2.830668-5.38056-3.0544-.24171-.223731-1.95356-2.1232956-.65585-1.6765229 1.35735.4673057 3.69964 1.9714499 5.90192 3.9980659z"
        fill="url(#linearGradient4503)" fill-rule="evenodd" />
      <rect fill="url(#radialGradient4505)" height="1.123992" transform="matrix(.704277 .709925 -.703795 .710403 0 0)"
        width="5.709763" x="77.729355" y="-66.111061" />
      <rect fill="url(#radialGradient4507)" height="1.123992" transform="matrix(-.704277 -.709925 -.703795 .710403 0 0)"
        width="5.665172" x="-97.69883" y="-66.111061" />
      <rect fill="url(#radialGradient4509)" height="1.124328" transform="matrix(.70478 .709426 -.690848 .723 0 0)"
        width="19.764708" x="79.020126" y="-66.069191" />
      <path
        d="m100.50635 20.476051c2.60365 2.868493 5.71367 5.182273 5.99105 5.33209.27738.149797-3.32748-2.865744-5.25525-5.188471-1.91303-2.304972-2.77878-5.143333-3.00066-5.38648-.22189-.243148-2.11042-1.969595-1.67849-.674421.45177 1.354693 1.93366 3.701947 3.94335 5.917282z"
        fill="url(#linearGradient4511)" fill-rule="evenodd" />
      <rect fill="url(#radialGradient4513)" height="1.124217" transform="matrix(.704913 .709294 .724536 -.689237 0 0)"
        width="5.70983" x="75.882996" y="58.553444" />
      <rect fill="url(#radialGradient4515)" height="1.124217" transform="matrix(-.704913 -.709294 .724536 -.689237 0 0)"
        width="5.665237" x="-95.852699" y="58.553444" />
      <rect fill="url(#radialGradient4517)" height="1.124815" transform="matrix(.70441 .709793 .73686 -.676045 0 0)"
        width="19.764559" x="74.919868" y="58.646084" />
      <g transform="matrix(.584421 .588579 -.592477 .580575 60.97237 -33.50045)">
        <g>
          <g>
            <path
              d="m82.253117 16.192372c-37.957156 0-68.919768 30.930705-68.919768 68.887861 0 37.957157 30.962613 68.919767 68.919768 68.919767 37.957163 0 68.919773-30.96261 68.919773-68.919767 0-37.957156-30.96261-68.887861-68.919773-68.887861zm0 14.996432c29.830703 0 53.891423 24.060738 53.891423 53.891429 0 29.830697-24.06072 53.891417-53.891423 53.891417-29.830693 0-53.89143-24.06072-53.89143-53.891417 0-29.830691 24.060739-53.891429 53.89143-53.891429z"
              fill="url(#radialGradient4467)" />
            <path
              d="m93.725433 83.571533a62.349537 62.349537 0 1 1 -124.699073 0 62.349537 62.349537 0 1 1 124.699073 0z"
              fill="url(#linearGradient4521)" transform="matrix(.882518 0 0 .882518 54.56332 11.34279)" />
            <path
              d="m13.333349 85.080233c0 37.957157 30.962613 68.919767 68.919768 68.919767 37.957163 0 68.919773-30.96261 68.919773-68.919767 0-37.957156-137.839541-37.957156-137.839541 0zm122.811191 0c0 29.830697-24.06072 53.891417-53.891423 53.891417-29.830693 0-53.89143-24.06072-53.89143-53.891417 0-29.830691 107.782853-29.830691 107.782853 0z"
              fill="url(#linearGradient4469)" />
            <path
              d="m82.253117 16.192372c-37.957156 0-68.919768 30.930705-68.919768 68.887861 0 37.957157 30.962613 68.919767 68.919768 68.919767 37.957163 0 68.919773-30.96261 68.919773-68.919767 0-37.957156-30.96261-68.887861-68.919773-68.887861zm0 14.996432c29.830703 0 53.891423 24.060738 53.891423 53.891429 0 29.830697-24.06072 53.891417-53.891423 53.891417-29.830693 0-53.89143-24.06072-53.89143-53.891417 0-29.830691 24.060739-53.891429 53.89143-53.891429z"
              fill="url(#radialGradient4525)" />
          </g>
          <path
            d="m81.53125 30.0625c-30.046417.381017-54.3125 24.894967-54.3125 55.03125 0 10.915503 3.198658 21.09742 8.6875 29.65625l97.84375-49.0625c-7.85324-20.80341-27.95884-35.624999-51.5-35.625-.237294 0-.482164-.003-.71875 0z"
            fill="url(#radialGradient4527)" opacity=".696721" />
        </g>
        <path d="m83.669055 88.197472a4.6259332 4.6259332 0 1 1 -9.251867 0 4.6259332 4.6259332 0 1 1 9.251867 0z"
          transform="matrix(1.458491 0 0 1.458491 -33.03056 -43.53902)" />
      </g>
      <rect height="7.465668" opacity=".696721" transform="matrix(.704596 .709609 -.714244 .699897 0 0)" width=".889477"
        x="86.527008" y="-40.327866" />
      <path
        d="m82.182973 42.293037-22.068469 18.364795c-1.361231-.564297-3.010445-.312282-4.136582.75348-1.122683 1.062493-1.405247 2.63607-.835436 3.940355l-6.340551 6.000621 1.94543 1.878083 6.340551-6.000617c1.360035.560935 3.006094.304777 4.130504-.759353 1.126712-1.066304 1.407339-2.639161.82936-3.946221z"
        fill="#505050" />
      <path
        d="m40.31416 26.215138 15.562305 35.473697c-.962461 1.110358-1.233166 2.746034-.562839 4.140289.668271 1.389982 2.08635 2.145208 3.511286 2.011907l3.77418 7.850172 2.400956-1.254302-3.774177-7.85017c.958874-1.110266 1.224634-2.744248.555336-4.13637-.670669-1.39497-2.088659-2.148146-3.518785-2.00799z"
        fill="#a00000" />
      <g transform="matrix(.831465 .03499012 -.03522186 .825995 .789955 -7.883916)">
        <rect height="8.999997" opacity=".696721" transform="matrix(.974501 .224383 -.224383 .974501 0 0)"
          width="1.072376" x="89.738029" y="12.969214" />
        <g>
          <g transform="matrix(.731752 .681571 -.681571 .731752 70.94005 -34.01803)">
            <rect height="9" opacity=".696721" transform="matrix(-.5 .866025 -.866025 -.5 0 0)" width="1.072377"
              x="30.946468" y="-166.85355" />
            <rect height="9" opacity=".696721" transform="matrix(.5 -.866025 .866025 .5 0 0)" width="1.072377"
              x="-33.091228" y="61.312336" />
          </g>
          <rect height="8.999997" opacity=".696721" transform="matrix(-.974501 -.224383 .224383 -.974501 0 0)"
            width="1.072376" x="-91.882782" y="-118.51031" />
          <g transform="matrix(.29293 .956134 -.956134 .29293 130.5446 -19.54965)">
            <rect height="9.000002" opacity=".696721" transform="matrix(-.866025 -.5 .5 -.866025 0 0)" width="1.072377"
              x="-115.15533" y="-84.789459" />
            <rect height="9.000002" opacity=".696721" transform="matrix(.866025 .5 -.5 .866025 0 0)" width="1.072377"
              x="113.01057" y="-20.75176" />
          </g>
          <g transform="matrix(.731752 .681571 -.681571 .731752 70.94008 -34.01802)">
            <rect height="9.000002" opacity=".696721" transform="matrix(-.866025 -.5 .5 -.866025 0 0)" width="1.072377"
              x="-115.15533" y="-84.789459" />
            <rect height="9.000002" opacity=".696721" transform="matrix(.866025 .5 -.5 .866025 0 0)" width="1.072377"
              x="113.01057" y="-20.75176" />
          </g>
          <g font-family="Bitstream Vera Sans">
            <text font-size="10.367237" transform="matrix(.731752 .681571 -.681571 .731752 0 0)" x="104.08588"
              y="-23.549036">
              <tspan x="104.08588" y="-23.549036">12</tspan>
            </text>
            <text font-size="7.749369" transform="matrix(-.731752 -.681571 .681571 -.731752 0 0)" x="-114.79855"
              y="-48.494442">
              <tspan x="-114.79855" y="-48.494442">6</tspan>
            </text>
          </g>
          <g>
            <rect height="9.000002" opacity=".696721" transform="matrix(-.731752 -.681571 .681571 -.731752 0 0)"
              width="1.072377" x="-112.58651" y="-64.297791" />
            <g transform="matrix(.731752 .681571 -.681571 .731752 70.94005 -34.01803)">
              <rect height="9" opacity=".696721" transform="rotate(90)" width="1.072377" x="83.698227" y="-135.55991" />
              <rect height="9" opacity=".696721" transform="matrix(0 -1 1 0 0 0)" width="1.072377" x="-85.842987"
                y="30.018696" />
              <g font-family="Bitstream Vera Sans" font-size="7.749367">
                <text transform="rotate(90)" x="81.782143" y="-119.10438">
                  <tspan x="81.782143" y="-119.10438">3</tspan>
                </text>
                <text transform="rotate(-90)" x="-87.707237" y="45.117973">
                  <tspan x="-87.707237" y="45.117973">9</tspan>
                </text>
              </g>
            </g>
          </g>
        </g>
      </g>
      <path
        d="m115.74498 60.231414c-2.74108 7.986496-4.5017 16.957489-8.5543 23.967856-1.83739 3.178372-9.72485 5.526731-9.44672 6.606694.26688 1.036223 9.15623 2.156753 11.08175-.258175 4.11434-5.160013 4.66169-15.243099 7.00763-22.731962.08473-2.569791.0615-4.970604-.08836-7.584413z"
        fill-rule="evenodd" opacity=".180328" />
      <path
        d="m115.74498 60.231414c-2.39065 8.822748-4.43858 17.598559-8.49119 24.608915-1.8374 3.178366-7.60219 4.400218-7.32406 5.480181.26688 1.03621 5.97012 1.634743 7.89565-.780171 4.11433-5.16 5.56454-14.034785 7.91049-21.523645-.14987-2.613813.15897-5.171472.00911-7.78528z"
        fill-rule="evenodd" opacity=".180328" />
      <g transform="matrix(.831465 .03499012 -.03522186 .825995 .789955 -7.883916)">
        <rect height="1.799535" opacity=".696721" transform="matrix(.731752 .681571 -.681571 .731752 0 0)"
          width=".21442" x="133.38354" y="18.07995" />
        <rect height="1.799535" opacity=".696721" transform="matrix(-.731752 -.681571 .681571 -.731752 0 0)"
          width=".21442" x="-133.81239" y="-39.182739" />
        <rect height="1.799535" opacity=".696721" transform="matrix(-.681571 .731752 -.731752 -.681571 0 0)"
          width=".21442" x="28.41691" y="-144.14935" />
        <rect height="1.799535" opacity=".696721" transform="matrix(.681571 -.731752 .731752 .681571 0 0)"
          width=".21442" x="-28.84576" y="123.04665" />
        <rect height="1.799533" opacity=".696721" transform="matrix(-.956134 .29293 -.29293 -.956134 0 0)"
          width=".21442" x="-42.218117" y="-140.56609" />
        <rect height="1.799533" opacity=".696721" transform="matrix(.956134 -.29293 .29293 .956134 0 0)" width=".21442"
          x="41.789272" y="119.46337" />
        <rect height="1.799538" opacity=".696721" transform="matrix(-.974501 -.224383 .224383 -.974501 0 0)"
          width=".21442" x="-101.59805" y="-102.14622" />
        <rect height="1.799538" opacity=".696721" transform="matrix(.974501 .224383 -.224383 .974501 0 0)"
          width=".21442" x="101.16921" y="81.043381" />
        <g transform="matrix(.05857058 .191177 -.191177 .05857058 89.60339 91.21509)">
          <rect height="9.000002" opacity=".696721" transform="matrix(-.866025 -.5 .5 -.866025 0 0)" width="1.072377"
            x="-115.15533" y="-84.789459" />
          <rect height="9.000002" opacity=".696721" transform="matrix(.866025 .5 -.5 .866025 0 0)" width="1.072377"
            x="113.01057" y="-20.75176" />
        </g>
        <g transform="matrix(.146312 .136279 -.136279 .146312 77.68556 88.32218)">
          <rect height="9.000002" opacity=".696721" transform="matrix(-.866025 -.5 .5 -.866025 0 0)" width="1.072377"
            x="-115.15533" y="-84.789459" />
          <rect height="9.000002" opacity=".696721" transform="matrix(.866025 .5 -.5 .866025 0 0)" width="1.072377"
            x="113.01057" y="-20.75176" />
        </g>
        <path
          d="m85.813339 112.81354-6.828899-1.09874c-.111007-.33654-.416561-.5961-.788541-.63179-.370847-.0356-.702923.16231-.85168.47235l-2.094381-.20099-.037208.65068 2.094381.201c.11146.33578.417251.59412.788666.62975.372181.03573.703825-.16242.851797-.47437z"
          fill="#505050" />
        <path
          d="m76.834961 121.97317 1.554949-9.22869c.340391-.09859.61097-.39443.660281-.76485.049152-.36929-.13645-.7084-.44081-.86843l.277633-2.08561-.648899-.06104-.27763 2.08563c-.339646.09906-.609014.39519-.658254.76504-.049338.37061.136513.7093.442829.8686z"
          fill="#a00000" />
        <g font-family="Bitstream Vera Sans">
          <text font-size="2.072911" transform="matrix(.731752 .681571 -.681571 .731752 0 0)" x="132.1127"
            y="21.617929">
            <tspan x="132.1127" y="21.617929">12</tspan>
          </text>
          <text font-size="1.549473" transform="matrix(-.731752 -.681571 .681571 -.731752 0 0)" x="-134.25467"
            y="-36.022888">
            <tspan x="-134.25467" y="-36.022888">6</tspan>
          </text>
          <text font-size="1.549473" transform="matrix(-.681571 .731752 -.731752 -.681571 0 0)" x="28.0338"
            y="-140.85912">
            <tspan x="28.0338" y="-140.85912">3</tspan>
          </text>
          <text font-size="1.549473" transform="matrix(.681571 -.731752 .731752 .681571 0 0)" x="-29.218502"
            y="126.06572">
            <tspan x="-29.218502" y="126.06572">9</tspan>
          </text>
        </g>
        <path d="m114.53316 101.32612a7.5778079 7.361299 0 1 1 -15.155615 0 7.5778079 7.361299 0 1 1 15.155615 0z"
          opacity=".180328" transform="matrix(.970793 .904221 -.904221 .970793 65.66841 -82.83729)" />
      </g>
      <g fill-rule="evenodd">
        <path
          d="m24.09636 94.655272c18.40571 20.546048 48.387504 19.650788 65.447451 3.81328-5.670271 9.031078-22.98035 16.664308-35.367409 16.203918-19.891117-.73929-45.735539-21.815039-30.080042-20.017198z"
          fill="url(#linearGradient4529)" />
        <path
          d="m58.705178 8.1534914c-41.921869.0963187-63.8996594 41.0031306-54.6486128 71.1440916.1806818.588673 1.3789486.606445 1.8632508.247635 3.78632-2.805238-11.6651099-62.196302 53.396373-68.899001z"
          fill="url(#linearGradient4531)" />
        <path
          d="m103.91979 9.5528768c5.18043 3.1204792 8.05342 6.9580362 10.3895 10.3753362.31903.855035-3.54032-3.152065-5.69923-5.228302-1.4578-1.401977-5.26291-5.1199447-4.69027-5.1470342z"
          opacity=".131148" />
        <path
          d="m103.91979 9.5528768c5.18043 3.1204792 8.05342 6.9580362 10.3895 10.3753362.31903.855035-3.41602-3.545887-5.53561-5.661737-1.64868-1.645784-5.42653-4.6865097-4.85389-4.7135992z"
          opacity=".22541" />
        <path
          d="m103.91979 9.5528768c5.18043 3.1204792 8.05342 6.9580362 10.3895 10.3753362.31903.855035-2.95246-3.627155-5.07203-5.743006-1.6487-1.645784-5.89011-4.6052407-5.31747-4.6323302z"
          opacity=".655738" />
      </g>
      <rect fill="url(#linearGradient4533)" height="6.305654" opacity=".413934"
        transform="matrix(.709437 .704769 -.709437 .704769 0 0)" width="19.569275" x="77.503227" y="-64.942162" />
      <path
        d="m99.59606 25.257933s4.12245 4.755346 3.78812 7.786692c-.19179 1.73888-2.9235 3.322664-2.52542 4.840375.72432 2.761462 3.63964 5.596022 5.89264 7.997142 2.81536 3.000459 6.52398 2.946317 6.52398 2.946317-2.58326-9.467311-7.59975-17.273622-13.67932-23.570526z"
        fill="url(#linearGradient4535)" fill-rule="evenodd" opacity=".168033" />
      <path
        d="m99.59606 25.257933s4.12245 4.755346 3.78812 7.786692c-.19179 1.73888-2.9235 3.322664-2.52542 4.840375.72432 2.761462 3.63964 5.596022 5.89264 7.997142 2.81536 3.000459 6.52398 2.946317 6.52398 2.946317-2.58326-9.467311-7.59975-17.273622-13.67932-23.570526z"
        fill="url(#linearGradient4537)" fill-rule="evenodd" opacity=".168033" />
      <g transform="matrix(.831465 .03499012 -.03522186 .825995 -24.954 -38.26179)">
        <rect height="1.799535" opacity=".696721" transform="matrix(.731752 .681571 -.681571 .731752 0 0)"
          width=".21442" x="133.38354" y="18.07995" />
        <rect height="1.799535" opacity=".696721" transform="matrix(-.731752 -.681571 .681571 -.731752 0 0)"
          width=".21442" x="-133.81239" y="-39.182739" />
        <rect height="1.799535" opacity=".696721" transform="matrix(-.681571 .731752 -.731752 -.681571 0 0)"
          width=".21442" x="28.41691" y="-144.14935" />
        <rect height="1.799535" opacity=".696721" transform="matrix(.681571 -.731752 .731752 .681571 0 0)"
          width=".21442" x="-28.84576" y="123.04665" />
        <rect height="1.799533" opacity=".696721" transform="matrix(-.956134 .29293 -.29293 -.956134 0 0)"
          width=".21442" x="-42.218117" y="-140.56609" />
        <rect height="1.799533" opacity=".696721" transform="matrix(.956134 -.29293 .29293 .956134 0 0)" width=".21442"
          x="41.789272" y="119.46337" />
        <rect height="1.799538" opacity=".696721" transform="matrix(-.974501 -.224383 .224383 -.974501 0 0)"
          width=".21442" x="-101.59805" y="-102.14622" />
        <rect height="1.799538" opacity=".696721" transform="matrix(.974501 .224383 -.224383 .974501 0 0)"
          width=".21442" x="101.16921" y="81.043381" />
        <g transform="matrix(.05857058 .191177 -.191177 .05857058 89.60339 91.21509)">
          <rect height="9.000002" opacity=".696721" transform="matrix(-.866025 -.5 .5 -.866025 0 0)" width="1.072377"
            x="-115.15533" y="-84.789459" />
          <rect height="9.000002" opacity=".696721" transform="matrix(.866025 .5 -.5 .866025 0 0)" width="1.072377"
            x="113.01057" y="-20.75176" />
        </g>
        <g transform="matrix(.146312 .136279 -.136279 .146312 77.68556 88.32218)">
          <rect height="9.000002" opacity=".696721" transform="matrix(-.866025 -.5 .5 -.866025 0 0)" width="1.072377"
            x="-115.15533" y="-84.789459" />
          <rect height="9.000002" opacity=".696721" transform="matrix(.866025 .5 -.5 .866025 0 0)" width="1.072377"
            x="113.01057" y="-20.75176" />
        </g>
        <path
          d="m85.813339 112.81354-6.828899-1.09874c-.111007-.33654-.416561-.5961-.788541-.63179-.370847-.0356-.702923.16231-.85168.47235l-2.094381-.20099-.037208.65068 2.094381.201c.11146.33578.417251.59412.788666.62975.372181.03573.703825-.16242.851797-.47437z"
          fill="#505050" />
        <path
          d="m76.834961 121.97317 1.554949-9.22869c.340391-.09859.61097-.39443.660281-.76485.049152-.36929-.13645-.7084-.44081-.86843l.277633-2.08561-.648899-.06104-.27763 2.08563c-.339646.09906-.609014.39519-.658254.76504-.049338.37061.136513.7093.442829.8686z"
          fill="#a00000" />
        <g font-family="Bitstream Vera Sans">
          <text font-size="2.072911" transform="matrix(.731752 .681571 -.681571 .731752 0 0)" x="132.1127"
            y="21.617929">
            <tspan x="132.1127" y="21.617929">12</tspan>
          </text>
          <text font-size="1.549473" transform="matrix(-.731752 -.681571 .681571 -.731752 0 0)" x="-134.25467"
            y="-36.022888">
            <tspan x="-134.25467" y="-36.022888">6</tspan>
          </text>
          <text font-size="1.549473" transform="matrix(-.681571 .731752 -.731752 -.681571 0 0)" x="28.0338"
            y="-140.85912">
            <tspan x="28.0338" y="-140.85912">3</tspan>
          </text>
          <text font-size="1.549473" transform="matrix(.681571 -.731752 .731752 .681571 0 0)" x="-29.218502"
            y="126.06572">
            <tspan x="-29.218502" y="126.06572">9</tspan>
          </text>
        </g>
        <path d="m114.53316 101.32612a7.5778079 7.361299 0 1 1 -15.155615 0 7.5778079 7.361299 0 1 1 15.155615 0z"
          opacity=".180328" transform="matrix(.970793 .904221 -.904221 .970793 65.66841 -82.83729)" />
      </g>
      <g transform="matrix(.142013 .142291 -.128855 .125545 109.6657 -9.174773)">
        <g>
          <g>
            <path
              d="m82.253117 16.192372c-37.957156 0-68.919768 30.930705-68.919768 68.887861 0 37.957157 30.962613 68.919767 68.919768 68.919767 37.957163 0 68.919773-30.96261 68.919773-68.919767 0-37.957156-30.96261-68.887861-68.919773-68.887861zm0 14.996432c29.830703 0 53.891423 24.060738 53.891423 53.891429 0 29.830697-24.06072 53.891417-53.891423 53.891417-29.830693 0-53.89143-24.06072-53.89143-53.891417 0-29.830691 24.060739-53.891429 53.89143-53.891429z"
              fill="url(#radialGradient4467)" />
            <path
              d="m13.333349 85.080233c0 37.957157 30.962613 68.919767 68.919768 68.919767 37.957163 0 68.919773-30.96261 68.919773-68.919767 0-37.957156-137.839541-37.957156-137.839541 0zm122.811191 0c0 29.830697-24.06072 53.891417-53.891423 53.891417-29.830693 0-53.89143-24.06072-53.89143-53.891417 0-29.830691 107.782853-29.830691 107.782853 0z"
              fill="url(#linearGradient4469)" />
            <path
              d="m82.253117 16.192372c-37.957156 0-68.919768 30.930705-68.919768 68.887861 0 37.957157 30.962613 68.919767 68.919768 68.919767 37.957163 0 68.919773-30.96261 68.919773-68.919767 0-37.957156-30.96261-68.887861-68.919773-68.887861zm0 14.996432c29.830703 0 53.891423 24.060738 53.891423 53.891429 0 29.830697-24.06072 53.891417-53.891423 53.891417-29.830693 0-53.89143-24.06072-53.89143-53.891417 0-29.830691 24.060739-53.891429 53.89143-53.891429z"
              fill="url(#radialGradient4471)" />
            <path
              d="m32.919809 44.249044c-7.19123 9.15761-11.296417 20.718791-11.296429 33.303626-.000017 15.789309 6.64233 30.01589 17.411554 39.85996-6.715563-8.98785-10.587113-20.219928-10.587116-32.338642.00001-29.8307 23.963769-53.818874 53.794476-53.818893 13.983144-.000001 26.704286 5.269512 36.267886 13.959199-9.82085-13.066631-25.435163-21.480535-43.092328-21.480517-17.245882.000017-32.643381 7.965934-42.498043 20.515267zm-4.818215 83.409956c12.637184 16.06593 32.257014 26.29152 54.201 26.29152 37.957176-.00001 68.883506-30.81815 68.883506-68.775314.00002-19.40061-8.12571-36.964581-21.10279-49.502155 8.91543 11.610347 14.27835 26.264198 14.27835 41.980837 0 37.957152-30.92633 68.775302-68.883498 68.775312-18.271445 0-35.020075-7.0945-47.376568-18.7702z"
              fill="url(#linearGradient4473)" />
            <path
              d="m106.40625.9375c-3.0632.0990517-6.01559 1.2292478-8.25 3.40625-2.633411 2.5657526-3.794611 6.113268-3.53125 9.71875.220155-2.887821 1.389582-5.6321059 3.53125-7.71875 5.10722-4.976005 13.87125-4.4210106 19.5 1.21875 2.71177 2.717073 4.20819 6.1317 4.46875 9.5.2865-3.982648-1.21463-8.2395129-4.46875-11.5-3.16617-3.1723653-7.3116-4.75235216-11.25-4.625zm-8.78125 13.5c-.301157 3.171661.882093 6.595721 3.5 9.21875 4.42366 4.432314 11.23621 4.848164 15.25.9375 2.12495-2.070351 3.02302-4.921232 2.75-7.8125-.21347 2.176079-1.1194 4.223793-2.75 5.8125-4.01379 3.910664-10.82634 3.494814-15.25-.9375-2.073589-2.077647-3.251006-4.658591-3.5-7.21875z"
              fill="url(#linearGradient4475)"
              transform="matrix(3.324551 -3.768017 3.412219 3.760659 -327.8572 438.6096)" />
          </g>
        </g>
      </g>
      <g transform="matrix(.510557 .513086 -.661997 .64955 125.9717 16.65801)">
        <rect fill="url(#linearGradient4497)" height="12.371133" width="16.588566" x="-26.710403" y="15.763824" />
        <path
          d="m-21.213203 25.119381c0 3.317745.18567 3.699316-.925702 3.699316-1.348921 0-1.195618 2.292556-1.195618-1.025189s.475176-8.684534 1.06066-8.684534c.585485 0 1.06066 2.692662 1.06066 6.010407z"
          fill="url(#radialGradient4481)" opacity=".364754"
          transform="matrix(4.166667 0 0 1.338235 73.00877 -10.52919)" />
      </g>
      <path
        d="m108.65043 13.028461c-3.58929-3.3527043-6.54149-4.6478109-7.43208-4.6198175-.00714.0004156-.03525.0001372-.04211.000735-.00657.000778-.0144.0203251-.02068.0212832-.01787.0034897-.04575.0143601-.0628.0220182-.00543.0027855-.03701-.0021691-.04211.000735-.00468.0029052-.01649.0184907-.02068.0212833-.00187.0015785-.01769.0182859-.02069.0212832l-4.82407 4.7080906c-.00306.002939-.01907.019447-.02068.021284-.00526.007111.00672.032605.00074.041833-.00299.005023-.01781.015926-.02069.021283-.00794.01683-.01618.045414-.01994.063117-.1345.797135 1.18241 3.944794 4.87747 7.844644.19795.20892.4103.424686.62205.637754 4.031 4.056066 7.2761 5.668251 8.35555 5.628923.00556-.000524.03654-.000047.04212-.000734.06689-.010117.14116-.041702.18838-.066054.00367-.002073.01731-.01918.02068-.021286.00545-.005684.01637-.017175.02069-.021282.12482-.118728 4.68217-4.564448 4.80338-4.686807.00629-.006348.03355-.034572.04137-.042568.03203-.054189.05005-.148387.05909-.23118.00127-.016339.0195-.045703.01995-.063117.00005-.017948-.00069-.064657-.00148-.083664-.00299-.048838-.01616-.132566-.02438-.18788-.21514-1.312884-1.85571-4.355319-5.53425-8.063339-.21154-.213254-.41447-.438266-.62204-.637753-.12108-.11637-.22314-.217029-.34279-.328785z"
        fill="url(#linearGradient4501)" fill-rule="evenodd" />
      <path
        d="m108.26477 12.873497c2.85156 2.625552 5.13788 5.746502 5.28488 6.024086.14697.277579-2.8389-3.344531-5.15039-5.291229-2.29383-1.931826-5.13886-2.830668-5.38056-3.0544-.24171-.223731-1.95356-2.1232956-.65585-1.6765229 1.35735.4673057 3.69964 1.9714499 5.90192 3.9980659z"
        fill="url(#linearGradient4503)" fill-rule="evenodd" />
      <rect fill="url(#radialGradient4505)" height="1.123992" transform="matrix(.704277 .709925 -.703795 .710403 0 0)"
        width="5.709763" x="77.729355" y="-66.111061" />
      <rect fill="url(#radialGradient4507)" height="1.123992" transform="matrix(-.704277 -.709925 -.703795 .710403 0 0)"
        width="5.665172" x="-97.69883" y="-66.111061" />
      <rect fill="url(#radialGradient4509)" height="1.124328" transform="matrix(.70478 .709426 -.690848 .723 0 0)"
        width="19.764708" x="79.020126" y="-66.069191" />
      <path
        d="m100.50635 20.476051c2.60365 2.868493 5.71367 5.182273 5.99105 5.33209.27738.149797-3.32748-2.865744-5.25525-5.188471-1.91303-2.304972-2.77878-5.143333-3.00066-5.38648-.22189-.243148-2.11042-1.969595-1.67849-.674421.45177 1.354693 1.93366 3.701947 3.94335 5.917282z"
        fill="url(#linearGradient4511)" fill-rule="evenodd" />
      <rect fill="url(#radialGradient4513)" height="1.124217" transform="matrix(.704913 .709294 .724536 -.689237 0 0)"
        width="5.70983" x="75.882996" y="58.553444" />
      <rect fill="url(#radialGradient4515)" height="1.124217" transform="matrix(-.704913 -.709294 .724536 -.689237 0 0)"
        width="5.665237" x="-95.852699" y="58.553444" />
      <rect fill="url(#radialGradient4517)" height="1.124815" transform="matrix(.70441 .709793 .73686 -.676045 0 0)"
        width="19.764559" x="74.919868" y="58.646084" />
      <path
        d="m99.44924 24.312935c-22.182969-22.3408001-58.603895-22.6071529-81.092619-.570165-22.4887256 22.036987-22.738137 58.23707-.555169 80.57787 22.182972 22.34081 58.622799 22.58863 81.111528.55165 22.48872-22.036992 22.71924-58.21855.53626-80.559355zm-8.885035 8.706559c17.433695 17.557738 17.239865 45.688452-.434115 63.007414-17.673989 17.318962-45.990997 17.126382-63.424693-.431357-17.433691-17.557732-17.239885-45.688446.434103-63.007412 17.673985-17.318962 45.991015-17.126376 63.424705.431355z"
        fill="url(#radialGradient4571)" />
      <path d="m93.725433 83.571533a62.349537 62.349537 0 1 1 -124.699073 0 62.349537 62.349537 0 1 1 124.699073 0z"
        fill="url(#linearGradient4521)" transform="matrix(.515762 .519432 -.522871 .512368 86.14 5.199743)" />
      <path
        d="m81.185836 43.290174-22.068469 18.364795c-1.361231-.564297-3.010445-.312282-4.136582.75348-1.122683 1.062493-1.405247 2.63607-.835436 3.940355l-6.340551 6.000621 1.94543 1.878083 6.340551-6.000617c1.360035.560935 3.006094.304777 4.130504-.759353 1.126712-1.066304 1.407339-2.639161.82936-3.946221z"
        fill="#505050" fill-opacity=".138211" />
      <path
        d="m18.356621 23.74277c-22.4887256 22.036987-22.738137 58.23707-.555169 80.57787 22.182972 22.34081 58.622799 22.58863 81.111528.55165 22.48872-22.036992-58.067635-103.1665079-80.556359-81.12952zm71.773469 72.284138c-17.673989 17.318962-45.990997 17.126382-63.424693-.431357-17.433691-17.557732-17.239885-45.688446.434103-63.007412 17.673985-17.318962 80.66457 46.119807 62.99059 63.438769z"
        fill="url(#linearGradient4575)" />
      <path
        d="m58.132552 12.927963c-11.198873.124151-22.368287 4.429748-30.998162 12.936884-9.665463 9.527993-15.378905 22.33718-14.564598 34.85235.761067-10.452695 6.487034-20.71086 14.564598-28.67354 17.673984-17.422612 46.002178-17.212273 63.435868.450538 7.831542 7.93447 13.386222 17.688108 14.116732 27.965162.82378-12.333041-4.71888-24.622609-14.116732-34.143972-8.921147-9.038392-20.701286-13.517531-32.437706-13.387422zm-56.7179992 47.917959c-.8394649 15.572749 4.6019132 31.448729 16.3788022 43.380398 22.182972 22.47451 58.637527 22.71595 81.126255.54708 12.12283-11.950414 17.76008-28.020837 16.92263-43.830934-.74416 13.745087-6.38104 27.26046-16.92263 37.652123-22.488728 22.168871-58.943283 21.927431-81.126255-.547082-10.224962-10.359344-15.6670512-23.678537-16.3788022-37.201585z"
        fill="url(#linearGradient4577)" opacity=".536885" />
      <path
        d="m90.809639 31.940713c-17.785509-17.463493-46.491063-17.513816-64.346104-.017435-6.467179 6.337272-10.630363 14.131306-12.493473 22.33097l86.250348 29.104342c7.73594-16.700202 4.76724-37.138993-8.990718-50.994835-.13868-.139667-.28001-.285534-.420053-.423042z"
        fill="url(#radialGradient4579)" opacity=".696721" />
      <path
        d="m39.317023 27.212275 15.562305 35.473697c-.962461 1.110358-1.233166 2.746034-.562839 4.140289.668271 1.389982 2.08635 2.145208 3.511286 2.011907l3.77418 7.850172 2.400956-1.254302-3.774177-7.85017c.958874-1.110266 1.224634-2.744248.555336-4.13637-.670669-1.39497-2.088659-2.148146-3.518785-2.00799z"
        fill-opacity=".097561" />
      <path d="m83.669055 88.197472a4.6259332 4.6259332 0 1 1 -9.251867 0 4.6259332 4.6259332 0 1 1 9.251867 0z"
        transform="matrix(.852373 .858438 -.864122 .846764 67.46446 -78.21923)" />
      <rect height="7.465668" opacity=".696721" transform="matrix(.704596 .709609 -.714244 .699897 0 0)" width=".889477"
        x="86.527008" y="-40.327866" />
      <path
        d="m82.182973 42.293037-22.068469 18.364795c-1.361231-.564297-3.010445-.312282-4.136582.75348-1.122683 1.062493-1.405247 2.63607-.835436 3.940355l-6.340551 6.000621 1.94543 1.878083 6.340551-6.000617c1.360035.560935 3.006094.304777 4.130504-.759353 1.126712-1.066304 1.407339-2.639161.82936-3.946221z"
        fill="#505050" />
      <path
        d="m40.31416 26.215138 15.562305 35.473697c-.962461 1.110358-1.233166 2.746034-.562839 4.140289.668271 1.389982 2.08635 2.145208 3.511286 2.011907l3.77418 7.850172 2.400956-1.254302-3.774177-7.85017c.958874-1.110266 1.224634-2.744248.555336-4.13637-.670669-1.39497-2.088659-2.148146-3.518785-2.00799z"
        fill="#a00000" />
      <g transform="matrix(.831465 .03499012 -.03522186 .825995 .789955 -7.883916)">
        <rect height="8.999997" opacity=".696721" transform="matrix(.974501 .224383 -.224383 .974501 0 0)"
          width="1.072376" x="89.738029" y="12.969214" />
        <g>
          <g transform="matrix(.731752 .681571 -.681571 .731752 70.94005 -34.01803)">
            <rect height="9" opacity=".696721" transform="matrix(-.5 .866025 -.866025 -.5 0 0)" width="1.072377"
              x="30.946468" y="-166.85355" />
            <rect height="9" opacity=".696721" transform="matrix(.5 -.866025 .866025 .5 0 0)" width="1.072377"
              x="-33.091228" y="61.312336" />
          </g>
          <rect height="8.999997" opacity=".696721" transform="matrix(-.974501 -.224383 .224383 -.974501 0 0)"
            width="1.072376" x="-91.882782" y="-118.51031" />
          <g transform="matrix(.29293 .956134 -.956134 .29293 130.5446 -19.54965)">
            <rect height="9.000002" opacity=".696721" transform="matrix(-.866025 -.5 .5 -.866025 0 0)" width="1.072377"
              x="-115.15533" y="-84.789459" />
            <rect height="9.000002" opacity=".696721" transform="matrix(.866025 .5 -.5 .866025 0 0)" width="1.072377"
              x="113.01057" y="-20.75176" />
          </g>
          <g transform="matrix(.731752 .681571 -.681571 .731752 70.94008 -34.01802)">
            <rect height="9.000002" opacity=".696721" transform="matrix(-.866025 -.5 .5 -.866025 0 0)" width="1.072377"
              x="-115.15533" y="-84.789459" />
            <rect height="9.000002" opacity=".696721" transform="matrix(.866025 .5 -.5 .866025 0 0)" width="1.072377"
              x="113.01057" y="-20.75176" />
          </g>
          <g font-family="Bitstream Vera Sans">
            <text font-size="10.367237" transform="matrix(.731752 .681571 -.681571 .731752 0 0)" x="104.08588"
              y="-23.549036">
              <tspan x="104.08588" y="-23.549036">12</tspan>
            </text>
            <text font-size="7.749369" transform="matrix(-.731752 -.681571 .681571 -.731752 0 0)" x="-114.79855"
              y="-48.494442">
              <tspan x="-114.79855" y="-48.494442">6</tspan>
            </text>
          </g>
          <g>
            <rect height="9.000002" opacity=".696721" transform="matrix(-.731752 -.681571 .681571 -.731752 0 0)"
              width="1.072377" x="-112.58651" y="-64.297791" />
            <g transform="matrix(.731752 .681571 -.681571 .731752 70.94005 -34.01803)">
              <rect height="9" opacity=".696721" transform="rotate(90)" width="1.072377" x="83.698227" y="-135.55991" />
              <rect height="9" opacity=".696721" transform="matrix(0 -1 1 0 0 0)" width="1.072377" x="-85.842987"
                y="30.018696" />
              <g font-family="Bitstream Vera Sans" font-size="7.749367">
                <text transform="rotate(90)" x="81.782143" y="-119.10438">
                  <tspan x="81.782143" y="-119.10438">3</tspan>
                </text>
                <text transform="rotate(-90)" x="-87.707237" y="45.117973">
                  <tspan x="-87.707237" y="45.117973">9</tspan>
                </text>
              </g>
            </g>
          </g>
        </g>
      </g>
      <path
        d="m115.74498 60.231414c-2.74108 7.986496-4.5017 16.957489-8.5543 23.967856-1.83739 3.178372-9.72485 5.526731-9.44672 6.606694.26688 1.036223 9.15623 2.156753 11.08175-.258175 4.11434-5.160013 4.66169-15.243099 7.00763-22.731962.08473-2.569791.0615-4.970604-.08836-7.584413z"
        fill-rule="evenodd" opacity=".180328" />
      <path
        d="m115.74498 60.231414c-2.39065 8.822748-4.43858 17.598559-8.49119 24.608915-1.8374 3.178366-7.60219 4.400218-7.32406 5.480181.26688 1.03621 5.97012 1.634743 7.89565-.780171 4.11433-5.16 5.56454-14.034785 7.91049-21.523645-.14987-2.613813.15897-5.171472.00911-7.78528z"
        fill="url(#linearGradient4581)" fill-rule="evenodd" opacity=".180328" />
      <g transform="matrix(.831465 .03499012 -.03522186 .825995 .789955 -7.883916)">
        <rect height="1.799535" opacity=".696721" transform="matrix(.731752 .681571 -.681571 .731752 0 0)"
          width=".21442" x="133.38354" y="18.07995" />
        <rect height="1.799535" opacity=".696721" transform="matrix(-.731752 -.681571 .681571 -.731752 0 0)"
          width=".21442" x="-133.81239" y="-39.182739" />
        <rect height="1.799535" opacity=".696721" transform="matrix(-.681571 .731752 -.731752 -.681571 0 0)"
          width=".21442" x="28.41691" y="-144.14935" />
        <rect height="1.799535" opacity=".696721" transform="matrix(.681571 -.731752 .731752 .681571 0 0)"
          width=".21442" x="-28.84576" y="123.04665" />
        <rect height="1.799533" opacity=".696721" transform="matrix(-.956134 .29293 -.29293 -.956134 0 0)"
          width=".21442" x="-42.218117" y="-140.56609" />
        <rect height="1.799533" opacity=".696721" transform="matrix(.956134 -.29293 .29293 .956134 0 0)" width=".21442"
          x="41.789272" y="119.46337" />
        <rect height="1.799538" opacity=".696721" transform="matrix(-.974501 -.224383 .224383 -.974501 0 0)"
          width=".21442" x="-101.59805" y="-102.14622" />
        <rect height="1.799538" opacity=".696721" transform="matrix(.974501 .224383 -.224383 .974501 0 0)"
          width=".21442" x="101.16921" y="81.043381" />
        <g transform="matrix(.05857058 .191177 -.191177 .05857058 89.60339 91.21509)">
          <rect height="9.000002" opacity=".696721" transform="matrix(-.866025 -.5 .5 -.866025 0 0)" width="1.072377"
            x="-115.15533" y="-84.789459" />
          <rect height="9.000002" opacity=".696721" transform="matrix(.866025 .5 -.5 .866025 0 0)" width="1.072377"
            x="113.01057" y="-20.75176" />
        </g>
        <g transform="matrix(.146312 .136279 -.136279 .146312 77.68556 88.32218)">
          <rect height="9.000002" opacity=".696721" transform="matrix(-.866025 -.5 .5 -.866025 0 0)" width="1.072377"
            x="-115.15533" y="-84.789459" />
          <rect height="9.000002" opacity=".696721" transform="matrix(.866025 .5 -.5 .866025 0 0)" width="1.072377"
            x="113.01057" y="-20.75176" />
        </g>
        <path
          d="m85.813339 112.81354-6.828899-1.09874c-.111007-.33654-.416561-.5961-.788541-.63179-.370847-.0356-.702923.16231-.85168.47235l-2.094381-.20099-.037208.65068 2.094381.201c.11146.33578.417251.59412.788666.62975.372181.03573.703825-.16242.851797-.47437z"
          fill="#505050" />
        <path
          d="m76.834961 121.97317 1.554949-9.22869c.340391-.09859.61097-.39443.660281-.76485.049152-.36929-.13645-.7084-.44081-.86843l.277633-2.08561-.648899-.06104-.27763 2.08563c-.339646.09906-.609014.39519-.658254.76504-.049338.37061.136513.7093.442829.8686z"
          fill="#a00000" />
        <g font-family="Bitstream Vera Sans">
          <text font-size="2.072911" transform="matrix(.731752 .681571 -.681571 .731752 0 0)" x="132.1127"
            y="21.617929">
            <tspan x="132.1127" y="21.617929">12</tspan>
          </text>
          <text font-size="1.549473" transform="matrix(-.731752 -.681571 .681571 -.731752 0 0)" x="-134.25467"
            y="-36.022888">
            <tspan x="-134.25467" y="-36.022888">6</tspan>
          </text>
          <text font-size="1.549473" transform="matrix(-.681571 .731752 -.731752 -.681571 0 0)" x="28.0338"
            y="-140.85912">
            <tspan x="28.0338" y="-140.85912">3</tspan>
          </text>
          <text font-size="1.549473" transform="matrix(.681571 -.731752 .731752 .681571 0 0)" x="-29.218502"
            y="126.06572">
            <tspan x="-29.218502" y="126.06572">9</tspan>
          </text>
        </g>
        <path d="m114.53316 101.32612a7.5778079 7.361299 0 1 1 -15.155615 0 7.5778079 7.361299 0 1 1 15.155615 0z"
          fill="url(#radialGradient4583)" opacity=".209016"
          transform="matrix(.970793 .904221 -.904221 .970793 65.66841 -82.83729)" />
      </g>
      <path
        d="m24.09636 94.655272c18.40571 20.546048 48.387504 19.650788 65.447451 3.81328-5.670271 9.031078-22.98035 16.664308-35.367409 16.203918-19.891117-.73929-45.735539-21.815039-30.080042-20.017198z"
        fill="url(#linearGradient4529)" fill-rule="evenodd" />
      <path
        d="m58.705178 8.1534914c-41.921869.0963187-63.8996594 41.0031306-54.6486128 71.1440916.1806818.588673 1.3789486.606445 1.8632508.247635 3.78632-2.805238-11.6651099-62.196302 53.396373-68.899001z"
        fill="url(#linearGradient4531)" fill-rule="evenodd" opacity=".286885" />
      <path
        d="m103.91979 9.5528768c5.18043 3.1204792 8.05342 6.9580362 10.3895 10.3753362.31903.855035-3.54032-3.152065-5.69923-5.228302-1.4578-1.401977-5.26291-5.1199447-4.69027-5.1470342z"
        fill-rule="evenodd" opacity=".131148" />
      <path
        d="m103.91979 9.5528768c5.18043 3.1204792 8.05342 6.9580362 10.3895 10.3753362.31903.855035-3.41602-3.545887-5.53561-5.661737-1.64868-1.645784-5.42653-4.6865097-4.85389-4.7135992z"
        fill-rule="evenodd" opacity=".22541" />
      <path
        d="m103.91979 9.5528768c5.18043 3.1204792 8.05342 6.9580362 10.3895 10.3753362.31903.855035-2.95246-3.627155-5.07203-5.743006-1.6487-1.645784-5.89011-4.6052407-5.31747-4.6323302z"
        fill-rule="evenodd" opacity=".655738" />
      <rect fill="url(#linearGradient4533)" height="6.305654" opacity=".413934"
        transform="matrix(.709437 .704769 -.709437 .704769 0 0)" width="19.569275" x="77.503227" y="-64.942162" />
      <path
        d="m99.59606 25.257933s4.12245 4.755346 3.78812 7.786692c-.19179 1.73888-2.9235 3.322664-2.52542 4.840375.72432 2.761462 3.63964 5.596022 5.89264 7.997142 2.81536 3.000459 6.52398 2.946317 6.52398 2.946317-2.58326-9.467311-7.59975-17.273622-13.67932-23.570526z"
        fill="url(#linearGradient4535)" fill-rule="evenodd" opacity=".168033" />
      <path
        d="m99.59606 25.257933s4.12245 4.755346 3.78812 7.786692c-.19179 1.73888-2.9235 3.322664-2.52542 4.840375.72432 2.761462 3.63964 5.596022 5.89264 7.997142 2.81536 3.000459 6.52398 2.946317 6.52398 2.946317-2.58326-9.467311-7.59975-17.273622-13.67932-23.570526z"
        fill="url(#linearGradient4537)" fill-rule="evenodd" opacity=".168033" />
      <rect height="1.492729" opacity=".696721" transform="matrix(.704596 .709609 -.714243 .699897 0 0)" width=".177849"
        x="65.839478" y="5.745838" />
      <rect height="1.492729" opacity=".696721" transform="matrix(-.704596 -.709609 .714243 -.699897 0 0)"
        width=".177849" x="-66.195183" y="-23.250778" />
      <rect height="1.492612" opacity=".696721" transform="matrix(-.714243 .699897 -.704596 -.709609 0 0)"
        width=".177863" x="14.320435" y="-74.769081" />
      <rect height="1.492612" opacity=".696721" transform="matrix(.714243 -.699897 .704596 .709609 0 0)" width=".177863"
        x="-14.676166" y="57.265625" />
      <rect height="1.488363" opacity=".696721" transform="matrix(-.968079 .250646 -.253764 -.967266 0 0)"
        width=".178368" x="-20.691961" y="-72.964653" />
      <path d="m114.53316 101.32612a7.5778079 7.361299 0 1 1 -15.155615 0 7.5778079 7.361299 0 1 1 15.155615 0z"
        fill="url(#radialGradient4583)" opacity=".180328"
        transform="matrix(.775332 .78085 -.786021 .770232 32.56466 -104.3872)" />
      <rect height="1.488363" opacity=".696721" transform="matrix(.968079 -.250646 .253764 .967266 0 0)" width=".178368"
        x="20.33522" y="55.510948" />
      <rect height="1.488435" opacity=".696721" transform="matrix(-.964577 -.263802 .267059 -.96368 0 0)"
        width=".178361" x="-50.245914" y="-54.163605" />
      <rect height="1.488435" opacity=".696721" transform="matrix(.964577 .263802 -.267059 .96368 0 0)" width=".178361"
        x="49.889191" y="36.709026" />
      <g transform="matrix(.04196577 .15996 -.16102 .04168971 46.3353 40.21668)">
        <rect height="9.000002" opacity=".696721" transform="matrix(-.866025 -.5 .5 -.866025 0 0)" width="1.072377"
          x="-115.15533" y="-84.789459" />
        <rect height="9.000002" opacity=".696721" transform="matrix(.866025 .5 -.5 .866025 0 0)" width="1.072377"
          x="113.01057" y="-20.75176" />
      </g>
      <g transform="matrix(.116854 .117686 -.118465 .116085 36.52794 37.41014)">
        <rect height="9.000002" opacity=".696721" transform="matrix(-.866025 -.5 .5 -.866025 0 0)" width="1.072377"
          x="-115.15533" y="-84.789459" />
        <rect height="9.000002" opacity=".696721" transform="matrix(.866025 .5 -.5 .866025 0 0)" width="1.072377"
          x="113.01057" y="-20.75176" />
      </g>
      <path
        d="m42.423268 57.924283-5.63929-1.146498c-.080445-.281865-.32536-.506951-.633391-.549446-.307092-.042381-.590172.109472-.724779.360358l-1.734325-.239299-.053855.536157 1.734324.239307c.080849.281253.326004.50534.633568.547766.308197.042536.590926-.109531.724947-.362023z"
        fill="#505050" />
      <path
        d="m33.191478 49.048593 2.383049 7.363435c-.21335.203459-.299762.524581-.194449.815084.104998.289613.3716.466626.657296.46661l.592962 1.635642.501952-.205366-.592972-1.635657c.212622-.203515.29803-.524384.192882-.814442-.105368-.290652-.371991-.46726-.658849-.465955z"
        fill="#a00000" />
      <text font-family="Bitstream Vera Sans" font-size="1.719413"
        transform="matrix(.704572 .709585 -.714283 .699936 0 0)" x="64.787285" y="8.680187">
        <tspan x="64.787285" y="8.680187">12</tspan>
      </text>
      <text font-family="Bitstream Vera Sans" font-size="1.285238"
        transform="matrix(-.704572 -.709585 .714283 -.699936 0 0)" x="-66.563972" y="-20.628633">
        <tspan x="-66.563972" y="-20.628633">6</tspan>
      </text>
      <text font-family="Bitstream Vera Sans" font-size="1.285238"
        transform="matrix(-.714283 .699936 -.704572 -.709585 0 0)" x="14.001945" y="-72.04216">
        <tspan x="14.001945" y="-72.04216">3</tspan>
      </text>
      <text font-family="Bitstream Vera Sans" font-size="1.285238"
        transform="matrix(.714283 -.699936 .704572 .709585 0 0)" x="-14.984618" y="59.771515">
        <tspan x="-14.984618" y="59.771515">9</tspan>
      </text>
      <path
        d="m93.818828 21.340874 8.469282 8.49921 4.07004-3.980264c1.61446 1.098659 3.08975 1.511498 3.77086 1.586076 0 0 1.01895-.970261 1.2209-1.167145 3.61397-3.914792-12.45187-10.081903-17.531082-4.937877z"
        fill="url(#linearGradient4597)" />
      <path
        d="m100.90998 20.888669c2.60902 3.589983 8.02267 6.767306 9.09763 6.577537 0 0-4.64444-4.25057-6.91285-5.930879-2.26842-1.68031-2.18478-.646658-2.18478-.646658z"
        fill="url(#linearGradient4599)" fill-rule="evenodd" />
      <path
        d="m100.90998 20.888669c2.60902 3.589983 8.02267 6.767306 9.09763 6.577537 0 0-4.63159-2.780428-6.40989-4.972868-1.83339-2.260357-2.59537-1.727831-2.68774-1.604669z"
        fill="url(#linearGradient4599)" fill-rule="evenodd" />
    </g>
    <path
      d="m19.668044 25.188306c26.153137-20.7015706 55.13962-15.960509 74.744189-3.156361-19.233849-17.1852942-52.534158-18.0471427-74.744189 3.156361z"
      fill="url(#linearGradient2601)" fill-rule="evenodd" />
  </g>
</svg>
